<?xml version="1.0" encoding="utf-8"?>
<!-- Generator: Adobe Illustrator 16.0.0, SVG Export Plug-In . SVG Version: 6.00 Build 0)  -->
<!DOCTYPE svg PUBLIC "-//W3C//DTD SVG 1.1//EN" "http://www.w3.org/Graphics/SVG/1.1/DTD/svg11.dtd">
<svg version="1.1" id="圖層_1" xmlns="http://www.w3.org/2000/svg" xmlns:xlink="http://www.w3.org/1999/xlink" x="0px" y="0px"
	 width="60px" height="60px" viewBox="182.601 55.04 60 60" enable-background="new 182.601 55.04 60 60" xml:space="preserve">
<path fill="#FFFFFF" d="M212.601,55.04c-16.568,0-30,13.432-30,30s13.432,30,30,30s30-13.432,30-30S229.169,55.04,212.601,55.04z
	 M223.362,87.555l-14.451,14.437c-0.658,0.671-1.558,1.049-2.52,1.049s-1.861-0.378-2.533-1.063
	c-0.659-0.645-1.036-1.545-1.036-2.507s0.377-1.861,1.062-2.533l11.885-11.896l-11.898-11.911c-0.672-0.659-1.05-1.559-1.05-2.52
	c0-0.962,0.378-1.862,1.063-2.534c0.645-0.658,1.544-1.036,2.506-1.036s1.861,0.377,2.533,1.062l14.422,14.411
	C224.72,83.913,224.72,86.167,223.362,87.555z"/>
</svg>
